<?xml version="1.0" encoding="UTF-8"?>
<svg xmlns="http://www.w3.org/2000/svg" xmlns:xlink="http://www.w3.org/1999/xlink" width="18pt" height="18pt" viewBox="0 0 18 18" version="1.1">
<g id="surface1">
<path style=" stroke:none;fill-rule:nonzero;fill:rgb(0%,0%,0%);fill-opacity:1;" d="M 17.667969 2.109375 C 17.222656 1.339844 16.425781 0.878906 15.535156 0.878906 L 5.617188 0.878906 C 5.421875 0.878906 5.265625 1.035156 5.265625 1.230469 C 5.265625 1.425781 5.421875 1.582031 5.617188 1.582031 L 15.535156 1.582031 C 16.171875 1.582031 16.738281 1.910156 17.058594 2.460938 C 17.375 3.011719 17.375 3.667969 17.058594 4.21875 L 10.523438 15.539062 C 10.203125 16.089844 9.636719 16.417969 9 16.417969 C 8.363281 16.417969 7.796875 16.089844 7.476562 15.539062 L 0.941406 4.21875 C 0.625 3.671875 0.625 3.015625 0.941406 2.464844 C 1.253906 1.917969 1.820312 1.585938 2.453125 1.582031 C 2.648438 1.582031 2.804688 1.421875 2.804688 1.230469 C 2.804688 1.035156 2.644531 0.878906 2.453125 0.878906 C 2.453125 0.878906 2.453125 0.878906 2.449219 0.878906 C 1.5625 0.882812 0.769531 1.347656 0.328125 2.117188 C -0.109375 2.886719 -0.109375 3.804688 0.332031 4.570312 L 6.867188 15.890625 C 7.3125 16.660156 8.109375 17.121094 9 17.121094 C 9.890625 17.121094 10.6875 16.660156 11.132812 15.890625 L 17.667969 4.570312 C 18.109375 3.800781 18.109375 2.878906 17.667969 2.109375 Z M 17.667969 2.109375 "/>
<path style=" stroke:none;fill-rule:nonzero;fill:rgb(0%,0%,0%);fill-opacity:1;" d="M 12.863281 7.957031 C 13.035156 8.054688 13.25 7.996094 13.34375 7.828125 L 15.832031 3.519531 C 15.894531 3.410156 15.894531 3.277344 15.832031 3.167969 C 15.769531 3.058594 15.652344 2.992188 15.527344 2.992188 L 2.472656 2.992188 C 2.347656 2.992188 2.230469 3.058594 2.167969 3.167969 C 2.105469 3.277344 2.105469 3.410156 2.167969 3.519531 L 8.695312 14.828125 C 8.757812 14.9375 8.875 15.003906 9 15.003906 C 9.125 15.003906 9.242188 14.9375 9.304688 14.828125 L 11.769531 10.558594 C 11.867188 10.390625 11.808594 10.175781 11.640625 10.078125 C 11.472656 9.980469 11.257812 10.039062 11.160156 10.207031 L 9 13.949219 L 3.082031 3.695312 L 14.917969 3.695312 L 12.738281 7.476562 C 12.640625 7.644531 12.695312 7.859375 12.863281 7.957031 Z M 12.863281 7.957031 "/>
<path style=" stroke:none;fill-rule:nonzero;fill:rgb(0%,0%,0%);fill-opacity:1;" d="M 12.554688 8.804688 C 12.476562 8.679688 12.324219 8.621094 12.183594 8.65625 C 12.039062 8.691406 11.929688 8.8125 11.914062 8.957031 C 11.898438 9.105469 11.980469 9.253906 12.113281 9.316406 C 12.242188 9.375 12.402344 9.351562 12.503906 9.253906 C 12.628906 9.136719 12.648438 8.945312 12.554688 8.804688 Z M 12.554688 8.804688 "/>
<path style=" stroke:none;fill-rule:nonzero;fill:rgb(0%,0%,0%);fill-opacity:1;" d="M 4.023438 1.582031 C 4.171875 1.582031 4.308594 1.484375 4.355469 1.34375 C 4.402344 1.203125 4.355469 1.042969 4.238281 0.953125 C 4.125 0.863281 3.964844 0.855469 3.84375 0.929688 C 3.714844 1.003906 3.648438 1.15625 3.679688 1.300781 C 3.714844 1.460938 3.859375 1.582031 4.023438 1.582031 Z M 4.023438 1.582031 "/>
</g>
</svg>
