<svg height="512pt" viewBox="-68 0 512 512.00002" width="512pt" xmlns="http://www.w3.org/2000/svg"><path d="m366.933594 187.734375c0 98.984375-179.199219 315.730469-179.199219 315.730469s-4.78125-5.800782-12.800781-15.871094c-40.875-51.710938-166.398438-217-166.398438-299.859375-.046875-94.011719 72.621094-172.046875 166.398438-178.6875 4.179687-.34375 8.53125-.511719 12.800781-.511719 47.527344-.007812 93.109375 18.871094 126.71875 52.476563 33.609375 33.609375 52.484375 79.191406 52.480469 126.722656zm0 0" fill="#cad9fc"/><path d="m341.332031 187.734375c0 82.859375-125.523437 248.148437-166.398437 299.859375-40.875-51.710938-166.398438-217-166.398438-299.859375-.046875-94.011719 72.621094-172.046875 166.398438-178.6875 93.777344 6.640625 166.445312 84.675781 166.398437 178.6875zm0 0" fill="#e8edfc"/><path d="m187.734375 42.667969c-4.273437-.019531-8.546875.179687-12.800781.597656-39.730469 3.25-76.339844 22.824219-101.105469 54.058594-24.765625 31.238281-35.476563 71.34375-29.582031 110.769531l163.839844-163.839844c-6.738282-1.003906-13.539063-1.535156-20.351563-1.585937zm0 0" fill="#d3dff2"/><path d="m208.085938 44.253906-163.839844 163.839844.007812.042969 163.875-163.875zm0 0" fill="#d3dff2"/><path d="m208.128906 44.261719-163.875 163.875.007813.042969 163.902343-163.910157zm0 0" fill="#d8e1f2"/><path d="m208.164062 44.269531-163.902343 163.910157v.035156l163.941406-163.933594zm0 0" fill="#dce3f2"/><path d="m208.203125 44.28125-163.941406 163.933594.007812.042968 163.976563-163.976562zm0 0" fill="#e0e5f2"/><path d="m208.246094 44.28125-163.976563 163.976562.011719.039063 164-164.007813zm0 0" fill="#e4e7f2"/><path d="m208.28125 44.289062-164 164.007813v.035156l164.042969-164.035156zm0 0" fill="#e7e8f2"/><path d="m208.324219 44.296875-164.042969 164.035156.007812.042969 164.078126-164.078125zm0 0" fill="#eaeaf2"/><path d="m208.367188 44.296875-164.078126 164.078125.007813.042969 164.105469-164.113281zm0 0" fill="#edebf2"/><path d="m208.402344 44.304688-164.105469 164.113281v.042969l164.148437-164.148438zm0 0" fill="#efecf2"/><path d="m208.445312 44.3125-164.148437 164.148438.007813.035156 164.183593-164.175782zm0 0" fill="#f1edf2"/><path d="m208.488281 44.320312-164.183593 164.175782.007812.042968 164.207031-164.21875zm0 0" fill="#f3eef2"/><path d="m208.519531 44.320312-164.207031 164.21875v.042969l164.25-164.25zm0 0" fill="#f5eef2"/><path d="m208.5625 44.332031-164.25 164.25.007812.039063 164.285157-164.28125zm0 0" fill="#f6eff2"/><path d="m208.605469 44.339844-164.285157 164.28125.011719.035156 164.316407-164.316406zm0 0" fill="#f8f0f2"/><path d="m208.648438 44.339844-164.316407 164.316406v.042969l164.351563-164.351563zm0 0" fill="#f9f0f2"/><path d="m208.683594 44.347656-164.351563 164.351563.007813.042969 164.386718-164.386719zm0 0" fill="#faf1f2"/><path d="m208.726562 44.355469-164.386718 164.386719.007812.035156 164.421875-164.414063zm0 0" fill="#fbf1f2"/><path d="m208.769531 44.363281-164.421875 164.414063v.042968l164.453125-164.457031zm0 0" fill="#fbf1f2"/><path d="m208.800781 44.363281-164.453125 164.457031.007813.042969 164.488281-164.488281zm0 0" fill="#fcf2f2"/><path d="m208.84375 44.375-164.488281 164.488281.007812.042969 164.523438-164.523438zm0 0" fill="#fdf2f2"/><path d="m208.886719 44.382812-164.523438 164.523438v.03125l164.558594-164.554688zm0 0" fill="#fdf2f2"/><path d="m208.921875 44.382812-164.558594 164.554688.011719.042969 164.589844-164.589844zm0 0" fill="#fdf2f2"/><path d="m208.964844 44.390625-164.589844 164.589844.007812.042969 164.625-164.625zm0 0" fill="#fef2f2"/><path d="m209.007812 44.398438-164.625 164.625.007813.042968 164.652344-164.660156zm0 0" fill="#fef3f2"/><path d="m209.042969 44.40625-164.652344 164.660156v.035156l164.691406-164.695312zm0 0" fill="#fef3f2"/><path d="m209.082031 44.40625-164.691406 164.695312.007813.042969 164.726562-164.730469zm0 0" fill="#fef3f2"/><path d="m209.125 44.414062-164.726562 164.730469.007812.042969 164.761719-164.761719zm0 0" fill="#fff3f2"/><path d="m209.167969 44.425781-164.761719 164.761719v.03125l164.796875-164.792969zm0 0" fill="#fff3f2"/><path d="m209.203125 44.425781-164.796875 164.792969.007812.042969 164.832032-164.828125zm0 0" fill="#fff3f2"/><path d="m209.246094 44.433594-164.832032 164.828125.011719.042969 164.863281-164.863282zm0 0" fill="#fff3f2"/><path d="m209.289062 44.441406-164.863281 164.863282v.042968l164.898438-164.898437zm0 0" fill="#fff3f2"/><path d="m209.324219 44.449219-164.898438 164.898437.007813.035156 164.933594-164.933593zm0 0" fill="#fff3f2"/><path d="m209.367188 44.449219-164.933594 164.933593.007812.042969 164.964844-164.96875zm0 0" fill="#fff3f2"/><path d="m209.40625 44.457031-164.964844 164.96875v.042969l165-165zm0 0" fill="#fff3f2"/><path d="m209.441406 44.46875-165 165 .007813.042969 165.035156-165.042969zm0 0" fill="#fff3f2"/><path d="m209.484375 44.46875-165.035156 165.042969.007812.03125 165.070313-165.066407zm0 0" fill="#fff3f2"/><path d="m209.527344 44.476562-165.070313 165.066407v.042969l165.113281-165.101563zm0 0" fill="#fff3f2"/><path d="m209.570312 44.484375-165.113281 165.101563.011719.042968 165.136719-165.136718zm0 0" fill="#fff3f2"/><path d="m209.605469 44.492188-165.136719 165.136718.007812.035156 165.171876-165.171874zm0 0" fill="#fff3f2"/><path d="m209.648438 44.492188-165.171876 165.171874v.042969l165.214844-165.207031zm0 0" fill="#fff3f2"/><path d="m209.691406 44.5-165.214844 165.207031.007813.042969 165.238281-165.238281zm0 0" fill="#fff3f2"/><path d="m209.722656 44.511719-165.238281 165.238281.007813.042969 165.273437-165.28125zm0 0" fill="#fff3f2"/><path d="m209.765625 44.511719-165.273437 165.28125v.03125l165.316406-165.304688zm0 0" fill="#fff3f2"/><path d="m209.808594 44.519531-165.316406 165.304688.007812.042969 165.34375-165.339844zm0 0" fill="#fff3f2"/><path d="m209.847656 44.527344-165.34375 165.34375c.910156 6.285156 2.238282 12.507812 3.96875 18.621094l179.9375-179.9375c-6.09375-1.75-12.292968-3.09375-18.5625-4.027344zm0 0" fill="#fff3f2"/><path d="m228.410156 48.554688-179.941406 179.9375c4.652344 15.796874 11.976562 30.679687 21.652344 44.007812l202.347656-202.351562c-13.34375-9.660157-28.246094-16.964844-44.058594-21.59375zm0 0" fill="#d3dff2"/><path d="m272.46875 70.152344-202.351562 202.34375.027343.03125 202.351563-202.359375zm0 0" fill="#d3dff2"/><path d="m272.496094 70.167969-202.351563 202.359375.015625.027344 202.359375-202.367188zm0 0" fill="#d8e1f2"/><path d="m272.519531 70.1875-202.359375 202.367188.019532.027343 202.367187-202.371093zm0 0" fill="#dce3f2"/><path d="m272.546875 70.210938-202.367187 202.371093.015624.023438 202.386719-202.375zm0 0" fill="#e0e5f2"/><path d="m272.582031 70.230469-202.386719 202.375.027344.027343 202.382813-202.386718zm0 0" fill="#e4e7f2"/><path d="m272.605469 70.246094-202.382813 202.386718.015625.03125 202.394531-202.390624zm0 0" fill="#e7e8f2"/><path d="m272.632812 70.273438-202.394531 202.390624.015625.027344 202.402344-202.402344zm0 0" fill="#eaeaf2"/><path d="m272.65625 70.289062-202.402344 202.402344.019532.027344 202.410156-202.414062zm0 0" fill="#edebf2"/><path d="m272.683594 70.304688-202.410156 202.414062.015624.023438 202.417969-202.410157zm0 0" fill="#efecf2"/><path d="m272.707031 70.332031-202.417969 202.410157.027344.027343 202.417969-202.421875zm0 0" fill="#f1edf2"/><path d="m272.734375 70.347656-202.417969 202.421875.015625.03125 202.425781-202.433593zm0 0" fill="#f3eef2"/><path d="m272.757812 70.367188-202.425781 202.433593.015625.027344 202.4375-202.445313zm0 0" fill="#f5eef2"/><path d="m272.785156 70.382812-202.4375 202.445313.019532.023437 202.445312-202.441406zm0 0" fill="#f6eff2"/><path d="m272.8125 70.410156-202.445312 202.441406.015624.027344 202.460938-202.453125zm0 0" fill="#f8f0f2"/><path d="m272.84375 70.425781-202.460938 202.453125.027344.027344 202.460938-202.464844zm0 0" fill="#f9f0f2"/><path d="m272.871094 70.441406-202.460938 202.464844.015625.023438 202.46875-202.460938zm0 0" fill="#faf1f2"/><path d="m272.894531 70.46875-202.46875 202.460938.015625.035156 202.480469-202.480469zm0 0" fill="#fbf1f2"/><path d="m272.921875 70.484375-202.480469 202.480469.019532.023437 202.484374-202.484375zm0 0" fill="#fbf1f2"/><path d="m272.945312 70.503906-202.484374 202.484375.023437.027344 202.488281-202.488281zm0 0" fill="#fcf2f2"/><path d="m272.972656 70.527344-202.488281 202.488281.019531.027344 202.496094-202.496094zm0 0" fill="#fdf2f2"/><path d="m273 70.546875-202.496094 202.496094.015625.023437 202.503907-202.503906zm0 0" fill="#fdf2f2"/><path d="m273.023438 70.5625-202.503907 202.503906.015625.035156 202.515625-202.515624zm0 0" fill="#fdf2f2"/><path d="m273.050781 70.585938-202.515625 202.515624.019532.023438 202.519531-202.519531zm0 0" fill="#fef2f2"/><path d="m273.074219 70.605469-202.519531 202.519531.023437.027344 202.523437-202.53125zm0 0" fill="#fef3f2"/><path d="m273.101562 70.621094-202.523437 202.53125.019531.023437 202.539063-202.527343zm0 0" fill="#fef3f2"/><path d="m273.136719 70.648438-202.539063 202.527343.015625.027344 202.546875-202.539063zm0 0" fill="#fef3f2"/><path d="m273.160156 70.664062-202.546875 202.539063.015625.035156 202.558594-202.558593zm0 0" fill="#fff3f2"/><path d="m273.1875 70.679688-202.558594 202.558593.027344.023438 202.554688-202.5625zm0 0" fill="#fff3f2"/><path d="m273.210938 70.699219-202.554688 202.5625.015625.027343 202.566406-202.566406zm0 0" fill="#fff3f2"/><path d="m273.238281 70.722656-202.566406 202.566406.019531.023438 202.570313-202.570312zm0 0" fill="#fff3f2"/><path d="m273.261719 70.742188-202.570313 202.570312.015625.027344 202.582031-202.582032zm0 0" fill="#fff3f2"/><path d="m273.289062 70.757812-202.582031 202.582032.027344.027344 202.578125-202.582032zm0 0" fill="#fff3f2"/><path d="m273.3125 70.785156-202.578125 202.582032.015625.03125 202.589844-202.597657zm0 0" fill="#fff3f2"/><path d="m273.339844 70.800781-202.589844 202.597657.015625.027343 202.601563-202.609375zm0 0" fill="#fff3f2"/><path d="m273.367188 70.816406-202.601563 202.609375.019531.023438 202.613282-202.605469zm0 0" fill="#fff3f2"/><path d="m273.398438 70.84375-202.613282 202.605469.015625.027343 202.625-202.617187zm0 0" fill="#fff3f2"/><path d="m273.425781 70.859375-202.625 202.617187.027344.023438 202.621094-202.621094zm0 0" fill="#fff3f2"/><path d="m273.449219 70.878906-202.621094 202.621094.015625.035156 202.632812-202.632812zm0 0" fill="#fff3f2"/><path d="m273.476562 70.902344-202.632812 202.632812.015625.027344 202.640625-202.640625zm0 0" fill="#fff3f2"/><path d="m273.5 70.921875-202.640625 202.640625.019531.023438 202.648438-202.648438zm0 0" fill="#fff3f2"/><path d="m273.527344 70.9375-202.648438 202.648438.015625.027343 202.660157-202.648437zm0 0" fill="#fff3f2"/><path d="m273.554688 70.964844-202.660157 202.648437.027344.023438 202.65625-202.65625zm0 0" fill="#fff3f2"/><path d="m273.578125 70.980469-202.65625 202.65625.015625.035156 202.667969-202.675781zm0 0" fill="#fff3f2"/><path d="m273.605469 70.996094-202.667969 202.675781.015625.027344 202.675781-202.675781zm0 0" fill="#fff3f2"/><path d="m273.632812 71.019531-202.675781 202.675781c4.335938 5.859376 9.109375 11.382813 14.273438 16.523438l205.074219-205.074219c-5.195313-5.121093-10.769532-9.839843-16.671876-14.125zm0 0" fill="#fff3f2"/><path d="m290.304688 85.144531-205.074219 205.074219v.007812l205.082031-205.082031zm0 0" fill="#fff3f2"/><path d="m290.3125 85.144531-205.082031 205.082031h.007812l205.074219-205.074218zm0 0" fill="#faf1f2"/><path d="m290.3125 85.152344-205.074219 205.074218.007813.007813 205.074218-205.082031zm0 0" fill="#f6eff2"/><path d="m290.320312 85.152344-205.074218 205.082031 205.074218-205.070313zm0 0" fill="#f2edf2"/><path d="m290.320312 85.164062-205.074218 205.070313.011718.011719 205.070313-205.074219zm0 0" fill="#eeebf2"/><path d="m290.328125 85.171875-205.070313 205.074219zm0 0" fill="#ebeaf2"/><path d="m290.328125 85.171875-205.070313 205.074219.007813.007812 205.074219-205.074218zm0 0" fill="#e8e8f2"/><path d="m290.339844 85.179688-205.074219 205.074218zm0 0" fill="#e5e7f2"/><path d="m290.339844 85.179688-205.074219 205.074218.007813.007813 205.074218-205.074219zm0 0" fill="#e3e6f2"/><path d="m290.347656 85.1875-205.074218 205.074219zm0 0" fill="#e1e5f2"/><path d="m290.347656 85.1875-205.074218 205.074219.007812.007812 205.074219-205.074219zm0 0" fill="#dfe4f2"/><path d="m290.355469 85.195312-205.074219 205.074219.007812.007813 205.066407-205.070313zm0 0" fill="#dde4f2"/><path d="m290.355469 85.207031-205.066407 205.070313 205.074219-205.070313zm0 0" fill="#dce3f2"/><path d="m290.363281 85.207031-205.074219 205.070313.011719.007812 205.070313-205.070312zm0 0" fill="#dae2f2"/><path d="m290.371094 85.214844-205.070313 205.070312zm0 0" fill="#d9e2f2"/><path d="m290.371094 85.214844-205.070313 205.070312.007813.011719 205.070312-205.074219zm0 0" fill="#d8e1f2"/><path d="m290.378906 85.222656-205.070312 205.074219zm0 0" fill="#d7e1f2"/><path d="m290.378906 85.222656-205.070312 205.074219.007812.007813 205.074219-205.074219zm0 0" fill="#d7e1f2"/><path d="m290.390625 85.230469-205.074219 205.074219 205.074219-205.066407zm0 0" fill="#d6e0f2"/><path d="m290.390625 85.238281-205.074219 205.066407.007813.007812 205.074219-205.074219zm0 0" fill="#d5e0f2"/><path d="m290.398438 85.238281-205.074219 205.074219 205.074219-205.066406zm0 0" fill="#d5e0f2"/><path d="m290.398438 85.246094-205.074219 205.066406.007812.007812 205.074219-205.074218zm0 0" fill="#d5e0f2"/><path d="m290.40625 85.246094-205.074219 205.074218.011719.007813 205.0625-205.070313zm0 0" fill="#d4e0f2"/><path d="m290.40625 85.257812-205.0625 205.070313 205.070312-205.070313zm0 0" fill="#d4dff2"/><path d="m290.414062 85.257812-205.070312 205.070313.007812.011719 205.0625-205.074219zm0 0" fill="#d4dff2"/><path d="m290.414062 85.265625-205.0625 205.074219 205.070313-205.066406zm0 0" fill="#d4dff2"/><g fill="#d3dff2"><path d="m290.421875 85.273438-205.070313 205.066406.007813.007812zm0 0"/><path d="m290.421875 85.273438-205.0625 205.074218 205.074219-205.066406zm0 0"/><path d="m290.433594 85.28125-205.074219 205.066406.007813.007813zm0 0"/><path d="m290.433594 85.28125-205.066406 205.074219 205.074218-205.066407zm0 0"/><path d="m290.441406 85.289062-205.074218 205.066407.007812.007812zm0 0"/><path d="m290.441406 85.289062-205.066406 205.074219 205.074219-205.0625zm0 0"/><path d="m290.449219 85.300781-205.074219 205.0625.007812.007813 205.066407-205.0625zm0 0"/><path d="m290.449219 85.308594-205.066407 205.0625.011719.007812 205.0625-205.070312zm0 0"/><path d="m290.457031 85.308594-205.0625 205.070312 205.0625-205.0625zm0 0"/><path d="m290.457031 85.316406-205.0625 205.0625.007813.011719 205.0625-205.074219zm0 0"/><path d="m290.464844 85.316406-205.0625 205.074219 205.0625-205.066406zm0 0"/><path d="m290.464844 85.324219-205.0625 205.066406.007812.007813 205.066406-205.074219zm0 0"/><path d="m290.476562 85.324219-205.066406 205.074219 205.074219-205.066407zm0 0"/><path d="m290.484375 85.332031-205.074219 205.066407.007813.007812 205.066406-205.0625zm0 0"/><path d="m290.484375 85.34375-205.066406 205.0625 205.074219-205.0625zm0 0"/><path d="m290.492188 85.34375-205.074219 205.0625.007812.007812 205.066407-205.0625zm0 0"/><path d="m290.492188 85.351562-205.066407 205.0625h.011719l205.0625-205.0625zm0 0"/><path d="m290.5 85.351562-205.0625 205.0625v.007813l205.0625-205.0625zm0 0"/><path d="m290.503906 85.359375-205.066406 205.0625c17.128906 17.144531 38.296875 29.703125 61.554688 36.523437l179.914062-179.914062c-6.785156-23.28125-19.300781-44.484375-36.402344-61.671875zm0 0"/><path d="m326.902344 147.03125-179.90625 179.914062 179.914062-179.90625zm0 0"/></g><path d="m326.910156 147.039062-179.914062 179.90625h.007812l179.90625-179.898437zm0 0" fill="#d4dff2"/><path d="m326.910156 147.046875-179.90625 179.898437.007813.007813 179.898437-179.898437zm0 0" fill="#d5e0f2"/><path d="m326.910156 147.054688-179.898437 179.898437h.007812l179.890625-179.890625zm0 0" fill="#d6e0f2"/><path d="m326.910156 147.0625-179.890625 179.890625h.011719zm0 0" fill="#d7e1f2"/><path d="m326.910156 147.0625-179.878906 179.890625 179.890625-179.882813zm0 0" fill="#d8e1f2"/><path d="m326.921875 147.070312-179.890625 179.882813.007812.011719 179.882813-179.882813zm0 0" fill="#d9e2f2"/><path d="m326.921875 147.082031-179.882813 179.882813h.007813l179.875-179.875zm0 0" fill="#dae2f2"/><path d="m326.921875 147.089844-179.875 179.875h.007813l179.867187-179.867188zm0 0" fill="#dbe3f2"/><path d="m326.921875 147.097656-179.867187 179.867188.007812.007812 179.867188-179.867187zm0 0" fill="#dce3f2"/><path d="m326.929688 147.105469-179.867188 179.867187h.007812l179.859376-179.859375zm0 0" fill="#dde4f2"/><path d="m326.929688 147.113281-179.859376 179.859375zm0 0" fill="#dee4f2"/><path d="m326.929688 147.113281-179.859376 179.859375h.011719l179.847657-179.847656zm0 0" fill="#dfe5f2"/><path d="m326.929688 147.125-179.847657 179.847656.007813.007813 179.839844-179.847657zm0 0" fill="#e0e5f2"/><path d="m326.929688 147.132812-179.839844 179.847657h.007812l179.839844-179.839844zm0 0" fill="#e1e6f2"/><path d="m326.9375 147.140625-179.839844 179.839844h.007813l179.832031-179.832031zm0 0" fill="#e2e6f2"/><path d="m326.9375 147.148438-179.832031 179.832031 179.832031-179.824219zm0 0" fill="#e3e6f2"/><path d="m326.9375 147.15625-179.832031 179.824219.007812.007812 179.824219-179.824219zm0 0" fill="#e4e7f2"/><path d="m326.9375 147.164062-179.824219 179.824219h.011719l179.820312-179.8125zm0 0" fill="#e5e7f2"/><path d="m326.945312 147.175781-179.820312 179.8125h.007812zm0 0" fill="#e6e8f2"/><path d="m326.945312 147.175781-179.8125 179.8125.007813.007813 179.804687-179.8125zm0 0" fill="#e7e8f2"/><path d="m326.945312 147.183594-179.804687 179.8125h.007813l179.796874-179.804688zm0 0" fill="#e8e9f2"/><path d="m326.945312 147.191406-179.796874 179.804688 179.796874-179.796875zm0 0" fill="#eae9f2"/><path d="m326.945312 147.199219-179.796874 179.796875h.007812l179.796875-179.789063zm0 0" fill="#ebeaf2"/><path d="m326.953125 147.207031-179.796875 179.789063.007812.011718 179.789063-179.789062zm0 0" fill="#eceaf2"/><path d="m326.953125 147.21875-179.789063 179.789062h.011719l179.777344-179.78125zm0 0" fill="#edebf2"/><path d="m326.953125 147.226562-179.777344 179.78125h.007813l179.769531-179.773437zm0 0" fill="#eeebf2"/><path d="m326.953125 147.234375-179.769531 179.773437 179.78125-179.773437zm0 0" fill="#efecf2"/><path d="m326.964844 147.234375-179.78125 179.773437.007812.007813 179.773438-179.773437zm0 0" fill="#f0ecf2"/><path d="m326.964844 147.242188-179.773438 179.773437h.007813l179.765625-179.765625zm0 0" fill="#f1ecf2"/><path d="m326.964844 147.25-179.765625 179.765625h.007812l179.757813-179.757813zm0 0" fill="#f2edf2"/><path d="m326.964844 147.257812-179.757813 179.757813.011719.007813 179.746094-179.753907zm0 0" fill="#f3edf2"/><path d="m326.964844 147.269531-179.746094 179.753907h.007812l179.746094-179.746094zm0 0" fill="#f4eef2"/><path d="m326.972656 147.277344-179.746094 179.746094 179.746094-179.738282zm0 0" fill="#f5eef2"/><path d="m326.972656 147.285156-179.746094 179.738282h.007813zm0 0" fill="#f6eff2"/><path d="m326.972656 147.285156-179.738281 179.738282.007813.007812 179.730468-179.738281zm0 0" fill="#f7eff2"/><path d="m326.972656 147.292969-179.730468 179.738281h.007812l179.730469-179.730469zm0 0" fill="#f8f0f2"/><path d="m326.980469 147.300781-179.730469 179.730469h.007812l179.722657-179.71875zm0 0" fill="#f9f0f2"/><path d="m326.980469 147.3125-179.722657 179.71875v.007812l179.722657-179.71875zm0 0" fill="#faf1f2"/><path d="m326.980469 147.320312-179.722657 179.71875h.011719l179.710938-179.710937zm0 0" fill="#fbf1f2"/><path d="m326.980469 147.328125-179.710938 179.710937h.007813l179.703125-179.703124zm0 0" fill="#fcf2f2"/><path d="m326.980469 147.335938-179.703125 179.703124h.007812l179.703125-179.695312zm0 0" fill="#fdf2f2"/><path d="m326.988281 147.34375-179.703125 179.695312.007813.007813zm0 0" fill="#fef3f2"/><path d="m326.988281 147.34375-179.695312 179.703125h.007812l179.6875-179.691406zm0 0" fill="#fff3f2"/><path d="m326.992188 147.355469-179.691407 179.691406c9.019531 2.613281 18.273438 4.339844 27.632813 5.15625 3.726562.378906 7.546875.496094 11.40625.53125l146.390625-146.386719c-.128907-13.199218-2.0625-26.316406-5.738281-38.992187zm0 0" fill="#fff3f2"/><path d="m332.730469 186.34375-146.386719 146.386719h.007812l146.378907-146.378907zm0 0" fill="#fff3f2"/><path d="m332.730469 186.351562-146.378907 146.378907h.007813l146.371094-146.371094zm0 0" fill="#fef3f2"/><path d="m332.730469 186.359375-146.371094 146.371094.007813.011719 146.363281-146.375zm0 0" fill="#fdf2f2"/><path d="m332.730469 186.367188-146.363281 146.375h.007812l146.355469-146.367188zm0 0" fill="#fcf2f2"/><path d="m332.730469 186.375-146.355469 146.367188h.011719l146.34375-146.347657zm0 0" fill="#fbf1f2"/><path d="m332.730469 186.394531-146.34375 146.347657h.007812l146.335938-146.339844zm0 0" fill="#faf1f2"/><path d="m332.730469 186.402344-146.335938 146.339844h.007813l146.328125-146.332032zm0 0" fill="#f9f0f2"/><path d="m332.730469 186.410156-146.328125 146.332032h.007812l146.320313-146.324219zm0 0" fill="#f8f0f2"/><path d="m332.730469 186.417969-146.320313 146.324219h.007813l146.3125-146.316407zm0 0" fill="#f7eff2"/><path d="m332.730469 186.425781-146.3125 146.316407h.011719l146.300781-146.304688zm0 0" fill="#f6eff2"/><path d="m332.730469 186.4375-146.300781 146.304688h.007812l146.292969-146.296876zm0 0" fill="#f5eef2"/><path d="m332.730469 186.445312-146.292969 146.296876h.007812l146.285157-146.289063zm0 0" fill="#f4eef2"/><path d="m332.730469 186.453125-146.285157 146.289063h.007813l146.277344-146.28125zm0 0" fill="#f3edf2"/><path d="m332.730469 186.460938-146.277344 146.28125h.007813l146.269531-146.273438zm0 0" fill="#f2edf2"/><path d="m332.730469 186.46875-146.269531 146.273438h.007812l146.273438-146.261719zm0 0" fill="#f1ecf2"/><path d="m332.742188 186.480469-146.273438 146.261719h.011719l146.261719-146.253907zm0 0" fill="#f0ecf2"/><path d="m332.742188 186.488281-146.261719 146.253907h.007812l146.253907-146.246094zm0 0" fill="#efecf2"/><path d="m332.742188 186.496094-146.253907 146.246094h.015625l146.238282-146.238282zm0 0" fill="#eeebf2"/><path d="m332.742188 186.503906-146.238282 146.238282h.007813l146.230469-146.230469zm0 0" fill="#edebf2"/><path d="m332.742188 186.511719-146.230469 146.230469h.011719l146.21875-146.21875zm0 0" fill="#eceaf2"/><path d="m332.742188 186.523438-146.21875 146.21875h.007812l146.210938-146.210938zm0 0" fill="#ebeaf2"/><path d="m332.742188 186.53125-146.210938 146.210938h.007812l146.203126-146.203126zm0 0" fill="#eae9f2"/><path d="m332.742188 186.539062-146.203126 146.203126.007813.007812 146.195313-146.203125zm0 0" fill="#e8e9f2"/><path d="m332.742188 186.546875-146.195313 146.203125h.007813l146.1875-146.195312zm0 0" fill="#e7e8f2"/><path d="m332.742188 186.554688-146.1875 146.195312h.007812l146.179688-146.1875zm0 0" fill="#e6e8f2"/><path d="m332.742188 186.5625-146.179688 146.1875h.011719l146.167969-146.175781zm0 0" fill="#e5e7f2"/><path d="m332.742188 186.574219-146.167969 146.175781h.007812l146.160157-146.167969zm0 0" fill="#e4e7f2"/><path d="m332.742188 186.582031-146.160157 146.167969h.007813l146.152344-146.160156zm0 0" fill="#e3e6f2"/><path d="m332.742188 186.589844-146.152344 146.160156h.007812l146.144532-146.144531zm0 0" fill="#e2e6f2"/><path d="m332.742188 186.605469-146.144532 146.144531h.007813l146.136719-146.132812zm0 0" fill="#e1e6f2"/><path d="m332.742188 186.617188-146.136719 146.132812h.011719l146.125-146.125zm0 0" fill="#e0e5f2"/><path d="m332.742188 186.625-146.125 146.125h.007812l146.117188-146.117188zm0 0" fill="#dfe5f2"/><path d="m332.742188 186.632812-146.117188 146.117188h.007812l146.117188-146.109375zm0 0" fill="#dee4f2"/><path d="m332.75 186.640625-146.117188 146.109375h.007813l146.109375-146.101562zm0 0" fill="#dde4f2"/><path d="m332.75 186.648438-146.109375 146.101562h.007813l146.101562-146.09375zm0 0" fill="#dce3f2"/><path d="m332.75 186.65625-146.101562 146.09375h.007812l146.09375-146.082031zm0 0" fill="#dbe3f2"/><path d="m332.75 186.667969-146.09375 146.082031h.011719l146.082031-146.074219zm0 0" fill="#dae2f2"/><path d="m332.75 186.675781-146.082031 146.074219h.007812l146.074219-146.066406zm0 0" fill="#d9e2f2"/><path d="m332.75 186.683594-146.074219 146.066406h.015625l146.058594-146.058594zm0 0" fill="#d8e1f2"/><path d="m332.75 186.691406-146.058594 146.058594h.007813l146.050781-146.050781zm0 0" fill="#d7e1f2"/><path d="m332.75 186.699219-146.050781 146.050781h.011719l146.039062-146.039062zm0 0" fill="#d6e0f2"/><path d="m332.75 186.710938-146.039062 146.039062h.007812l146.03125-146.03125zm0 0" fill="#d5e0f2"/><path d="m332.75 186.71875-146.03125 146.03125.007812.007812 146.023438-146.03125zm0 0" fill="#d4dff2"/><path d="m332.75 186.726562-146.023438 146.03125h.007813l146.015625-146.023437zm0 0" fill="#d3dff2"/><path d="m186.734375 332.753906c.339844 0 .660156.046875 1 .046875 38.472656.003907 75.375-15.28125 102.582031-42.484375 27.203125-27.207031 42.488282-64.109375 42.484375-102.582031 0-.34375-.050781-.664063-.050781-1zm0 0" fill="#d3dff2"/><path d="m178.515625 204.800781h-46.078125c-.78125.003907-1.535156-.265625-2.132812-.769531l-43.605469-33.449219c-.859375-.683593-1.363281-1.71875-1.367188-2.816406v-14.082031c-.007812-1.195313.589844-2.316406 1.589844-2.972656 1-.652344 2.269531-.757813 3.359375-.269532l43.777344 19.96875c.464844.167969.957031.253906 1.449218.257813h126.378907c6.28125.449219 12.378906 2.316406 17.835937 5.460937 5.800782 3.15625 10.410156 6.144532 10.410156 11.007813 0 9.726562-18.515624 17.664062-28.246093 17.664062h-36.351563" fill="#e8edfc"/><path d="m221.867188 204.800781-33.109376 41.386719c-.621093.828125-1.609374 1.308594-2.644531 1.277344h-24.320312c-1.242188 0-2.390625-.65625-3.019531-1.726563-.632813-1.066406-.652344-2.390625-.054688-3.476562l19.796875-37.460938zm0 0" fill="#e8edfc"/><path d="m171.847656 170.667969-9.261718-25.78125c-1.363282-3.789063.503906-8.351563 3.40625-8.351563h26.472656c1.296875.09375 2.441406.886719 2.980468 2.070313l17.886719 32.0625zm0 0" fill="#cad9fc"/><path d="m187.734375 503.464844s4.816406-5.832032 12.78125-15.894532c-40.894531-51.738281-166.382813-216.992187-166.382813-299.835937-.035156-93.695313 72.175782-171.570313 165.605469-178.59375-3.984375-.265625-7.953125-.605469-12.003906-.605469-4.269531 0-8.621094.167969-12.800781.511719-93.777344 6.640625-166.445313 84.675781-166.398438 178.6875 0 82.859375 125.523438 248.148437 166.398438 299.859375 8.019531 10.070312 12.800781 15.871094 12.800781 15.871094zm0 0" fill="#fff"/><path d="m181.15625 508.902344c-23.570312-28.953125-45.898438-58.5-67.488281-88.792969-25.15625-34.941406-48.402344-71.21875-69.632813-108.671875-10.703125-18.910156-20.199218-38.476562-28.433594-58.585938-9.0625-20.59375-14.347656-42.652343-15.601562-65.117187h17.066406c1.289063 20.285156 6.15625 40.179687 14.375 58.769531 7.964844 19.445313 17.15625 38.367188 27.511719 56.648438 20.925781 36.902344 43.832031 72.640625 68.621094 107.0625 21.324219 29.933594 43.613281 59.414062 66.734375 87.8125zm0 0" fill="#fff"/><path d="m161.25 470.015625c-3.726562 2.894531-4.402344 8.261719-1.511719 11.988281 7.035157 9.039063 14.09375 17.957032 21.417969 26.902344l13.15625-10.875c-7.09375-8.664062-14.160156-17.589844-21.101562-26.507812-2.902344-3.695313-8.234376-4.367188-11.960938-1.507813zm0 0" fill="#428dff"/><path d="m17.066406 187.734375h-17.066406c1.25 22.464844 6.535156 44.523437 15.597656 65.117187 8.234375 20.109376 17.730469 39.675782 28.433594 58.585938 21.234375 37.453125 44.476562 73.730469 69.632812 108.671875l4.988282 6.976563c2.761718 3.792968 8.070312 4.648437 11.882812 1.90625 3.808594-2.738282 4.691406-8.042969 1.972656-11.871094l-4.9375-6.90625c-24.789062-34.421875-47.695312-70.160156-68.621093-107.0625-10.355469-18.28125-19.542969-37.203125-27.511719-56.648438-8.21875-18.589844-13.082031-38.484375-14.371094-58.769531zm0 0" fill="#428dff"/><path d="m138.933594 454.742188c1.390625 1.792968 3.402344 2.996093 5.640625 3.371093l1.636719.050781c.578124-.027343 1.144531-.128906 1.695312-.308593.535156-.09375 1.050781-.269531 1.535156-.519531.507813-.261719.996094-.5625 1.460938-.890626 1.785156-1.386718 2.980468-3.394531 3.351562-5.625.53125-4.628906-2.640625-8.875-7.238281-9.667968-1.113281-.128906-2.242187-.046875-3.328125.242187-1.082031.261719-2.105469.734375-3.011719 1.386719-1.796875 1.371094-3.003906 3.371094-3.386719 5.597656-.269531 2.253906.320313 4.523438 1.644532 6.363282zm0 0" fill="#428dff"/><path d="m187.726562 512c-3.304687-.003906-6.308593-1.914062-7.714843-4.902344-1.40625-2.992187-.957031-6.523437 1.148437-9.070312 1.765625-2.140625 177.238282-215.519532 177.238282-310.292969 0-94.257813-76.410157-170.667969-170.664063-170.667969-94.257813 0-170.667969 76.410156-170.667969 170.667969 0 4.710937-3.820312 8.53125-8.53125 8.53125-4.714844 0-8.535156-3.820313-8.535156-8.53125 0-103.683594 84.050781-187.734375 187.734375-187.734375 103.679687 0 187.730469 84.050781 187.730469 187.734375 0 100.882813-173.757813 312.222656-181.15625 321.167969-1.621094 1.96875-4.035156 3.101562-6.582032 3.097656zm0 0" fill="#428dff"/><path d="m281.601562 512h-187.734374c-4.714844 0-8.535157-3.820312-8.535157-8.535156 0-4.710938 3.820313-8.53125 8.535157-8.53125h187.734374c4.710938 0 8.53125 3.820312 8.53125 8.53125 0 4.714844-3.820312 8.535156-8.53125 8.535156zm0 0" fill="#428dff"/><path d="m187.734375 341.332031c-84.832031 0-153.601563-68.769531-153.601563-153.597656 0-84.832031 68.769532-153.601563 153.601563-153.601563 84.828125 0 153.597656 68.769532 153.597656 153.601563-.09375 84.789063-68.808593 153.503906-153.597656 153.597656zm0-290.132812c-75.40625 0-136.535156 61.128906-136.535156 136.535156 0 75.402344 61.128906 136.53125 136.535156 136.53125 75.402344 0 136.53125-61.128906 136.53125-136.53125-.085937-75.371094-61.164063-136.449219-136.53125-136.535156zm0 0" fill="#428dff"/><path d="m261.886719 213.332031h-36.351563c-4.710937 0-8.53125-3.820312-8.53125-8.53125 0-4.714843 3.820313-8.535156 8.53125-8.535156h36.351563c7.546875-.335937 14.644531-3.671875 19.71875-9.265625-2.042969-1.019531-4.03125-2.148438-5.960938-3.375-4.210937-2.449219-8.90625-3.957031-13.757812-4.425781h-126.378907c-1.417968 0-2.824218-.238281-4.164062-.699219-.28125-.089844-.558594-.199219-.828125-.324219l-36.648437-16.726562v3.875l40.324218 30.941406h44.324219c4.714844 0 8.535156 3.820313 8.535156 8.535156 0 4.710938-3.820312 8.53125-8.535156 8.53125h-46.078125c-2.8125.003907-5.53125-.992187-7.675781-2.816406l-43.25-33.164063c-2.964844-2.296874-4.703125-5.835937-4.710938-9.585937v-14.082031c-.011719-4.0625 2.03125-7.855469 5.425781-10.089844 3.394532-2.234375 7.6875-2.609375 11.414063-.992188l42.824219 19.53125h125.421875c7.726562.433594 15.242187 2.667969 21.953125 6.523438 5.519531 2.996094 14.828125 8.0625 14.828125 18.480469 0 16.25-23.808594 26.195312-36.78125 26.195312zm-126.652344-16.273437.253906.203125c-.078125-.074219-.164062-.140625-.253906-.203125zm0 0" fill="#428dff"/><path d="m186.113281 256h-24.320312c-4.238281-.003906-8.164063-2.234375-10.335938-5.875s-2.273437-8.152344-.265625-11.882812l19.785156-37.429688c1.382813-2.769531 4.15625-4.570312 7.25-4.710938 3.089844-.136718 6.015626 1.40625 7.640626 4.042969 1.628906 2.632813 1.699218 5.941407.191406 8.644531l-15.933594 30.144532h13.523438l31.550781-39.460938c2.945312-3.683594 8.316406-4.28125 11.996093-1.339844 3.683594 2.945313 4.28125 8.316407 1.335938 11.996094l-33.109375 41.386719c-2.214844 2.886719-5.671875 4.550781-9.308594 4.484375zm-19.828125-9.789062-.023437.039062zm15.953125-5.492188c-.167969.175781-.320312.363281-.460937.566406zm0 0" fill="#428dff"/><path d="m171.851562 179.203125c-3.605468 0-6.816406-2.261719-8.035156-5.652344l-9.257812-25.78125c-1.773438-4.859375-1.109375-10.273437 1.78125-14.566406 2.164062-3.21875 5.773437-5.167969 9.652344-5.203125h26.472656c4.402344.074219 8.40625 2.550781 10.433594 6.453125l17.882812 32.054687c1.5625 2.667969 1.558594 5.96875-.007812 8.632813-1.566407 2.664063-4.449219 4.273437-7.539063 4.207031-3.085937-.0625-5.898437-1.792968-7.351563-4.523437l-16.609374-29.757813h-17.546876l8.15625 22.71875c1.589844 4.433594-.714843 9.320313-5.148437 10.910156-.925781.335938-1.902344.507813-2.882813.507813zm-1.234374-37.203125.007812.007812zm0 0" fill="#428dff"/></svg>