<svg height="512pt" viewBox="-74 0 512 512" width="512pt" xmlns="http://www.w3.org/2000/svg"><path d="m364.472656 182.238281c0 100.664063-182.234375 321.082031-182.234375 321.082031s-182.238281-220.417968-182.238281-321.082031c0-100.648437 81.589844-182.238281 182.238281-182.238281 100.644531 0 182.234375 81.589844 182.234375 182.238281zm0 0" fill="#e64c3c"/><path d="m347.117188 182.238281c0 91.058594-73.820313 164.878907-164.878907 164.878907-91.0625 0-164.882812-73.820313-164.882812-164.878907 0-91.0625 73.820312-164.882812 164.882812-164.882812 91.058594 0 164.878907 73.820312 164.878907 164.882812zm0 0" fill="#35495e"/><path d="m329.761719 182.238281c0 81.476563-66.046875 147.523438-147.523438 147.523438-81.476562 0-147.527343-66.046875-147.527343-147.523438 0-81.476562 66.050781-147.527343 147.527343-147.527343 81.476563 0 147.523438 66.050781 147.523438 147.527343zm0 0" fill="#ecf0f1"/><path d="m172.863281 199.59375h-46.859375c-.792968.003906-1.5625-.269531-2.167968-.78125l-44.347657-34.019531c-.875-.691407-1.382812-1.746094-1.386719-2.863281v-14.316407c-.011718-1.21875.597657-2.359375 1.617188-3.023437 1.015625-.667969 2.304688-.773438 3.417969-.273438l44.515625 20.304688c.472656.171875.972656.257812 1.476562.261718h128.519532c6.386718.457032 12.589843 2.355469 18.136718 5.550782 5.902344 3.210937 10.585938 6.25 10.585938 11.195312 0 9.894532-18.828125 17.964844-28.722656 17.964844h-36.96875" fill="#35495e"/><path d="m216.949219 199.59375-33.671875 42.085938c-.632813.847656-1.632813 1.332031-2.6875 1.304687h-24.734375c-1.261719-.003906-2.425781-.671875-3.066407-1.757813-.640624-1.085937-.664062-2.429687-.058593-3.535156l20.132812-38.097656zm0 0" fill="#3f5c6c"/><path d="m166.078125 164.882812-9.414063-26.21875c-1.378906-3.851562.511719-8.496093 3.46875-8.496093h26.902344c1.320313.097656 2.480469.90625 3.03125 2.109375l18.203125 32.605468zm0 0" fill="#2c3e50"/><path d="m277.695312 512h-190.914062c-4.792969 0-8.679688-3.886719-8.679688-8.679688 0-4.789062 3.886719-8.675781 8.679688-8.675781h190.914062c4.792969 0 8.675782 3.886719 8.675782 8.675781 0 4.792969-3.882813 8.679688-8.675782 8.679688zm0 0" fill="#4fba6f"/></svg>